# AST/ASF file generated using VICON BodyLanguage
# -----------------------------------------------
:version 1.10
:name VICON
:units
  mass 1.0
  length 0.45
  angle deg
:documentation
   .ast/.asf automatically generated from VICON data using
   VICON BodyBuilder and BodyLanguage model FoxedUp or BRILLIANT.MOD
:root
   order TX TY TZ RX RY RZ
   axis XYZ
   position 0 0 0  
   orientation 0 0 0 
:bonedata
  begin
     id 1 
     name lhipjoint
     direction 0.710188 -0.616876 0.339259 
     length 2.5669 
     axis 0 0 0  XYZ
  end
  begin
     id 2 
     name lfemur
     direction 0.34202 -0.939693 0  
     length 7.12796  
     axis 0 0 20  XYZ
    dof rx ry rz
    limits (-160.0 20.0)
           (-70.0 70.0)
           (-60.0 70.0)
  end
  begin
     id 3 
     name ltibia
     direction 0.34202 -0.939693 0   
     length 7.58108   
     axis 0 0 20   XYZ
    dof rx
    limits (-10.0 170.0)
  end
  begin
     id 4 
     name lfoot
     direction 0.0669471 -0.183936 0.980656   
     length 2.17365   
     axis -90 7.62852e-016 20   XYZ
    dof rx rz
    limits (-45.0 90.0)
           (-70.0 20.0)
  end
  begin
     id 5 
     name ltoes
     direction 1.53508e-011 -4.21705e-011 1   
     length 1.09427   
     axis -90 7.62852e-016 20   XYZ
    dof rx
    limits (-90.0 20.0)
  end
  begin
     id 6 
     name rhipjoint
     direction -0.700191 -0.625589 0.34405   
     length 2.53115  
     axis 0 0 0  XYZ 
  end
  begin
     id 7 
     name rfemur
     direction -0.34202 -0.939693 0   
     length 7.33006   
     axis 0 0 -20   XYZ
    dof rx ry rz
    limits (-160.0 20.0)
           (-70.0 70.0)
           (-70.0 60.0)
  end
  begin
     id 8 
     name rtibia
     direction -0.34202 -0.939693 0   
     length 7.64926   
     axis 0 0 -20   XYZ
    dof rx
    limits (-10.0 170.0)
 end
 begin
     id 9 
     name rfoot
     direction -0.0688927 -0.189281 0.979503   
     length 2.20493  
     axis -90 -7.62852e-016 -20   XYZ
    dof rx rz
    limits (-45.0 90.0)
           (-20.0 70.0)
  end
  begin
     id 10 
     name rtoes
     direction -1.53567e-011 -4.21933e-011 1   
     length 1.10919   
     axis -90 -7.62852e-016 -20   XYZ
    dof rx
    limits (-90.0 20.0)
  end
  begin
     id 11 
     name lowerback
     direction -0.0167868 0.989873 -0.140959   
     length 2.14596   
     axis 0 0 0   XYZ
    dof rx ry rz
    limits (-20.0 45.0)
           (-30.0 30.0)
           (-30.0 30.0)
  end
  begin
     id 12 
     name upperback
     direction 0.0129109 0.998033 0.0613525   
     length 2.10457   
     axis 0 0 0   XYZ
    dof rx ry rz
    limits (-20.0 45.0)
           (-30.0 30.0)
           (-30.0 30.0)
  end
  begin
     id 13 
     name thorax
     direction 0.0177047 0.991119 0.131797   
     length 2.17652   
     axis 0 0 0   XYZ
    dof rx ry rz
    limits (-20.0 45.0)
           (-30.0 30.0)
           (-30.0 30.0)
  end
  begin
     id 14 
     name lowerneck
     direction -0.0336893 0.997548 0.0613464   
     length 1.8912   
     axis 0 0 0   XYZ
    dof rx ry rz
    limits (-20.0 45.0)
           (-30.0 30.0)
           (-30.0 30.0)
  end
  begin
     id 15 
     name upperneck
     direction 0.0435909 0.997179 -0.0611028   
     length 1.8829   
     axis 0 0 0   XYZ
    dof rx ry rz
    limits (-20.0 45.0)
           (-30.0 30.0)
           (-30.0 30.0)
  end
  begin
     id 16
     name head
     direction 0.0175076 0.999444 -0.0283782  
     length 1.93197  
     axis 0 0 0   XYZ
    dof rx ry rz
    limits (-20.0 45.0)
           (-30.0 30.0)
           (-30.0 30.0)
  end
  begin
     id 17 
     name lclavicle
     direction 0.919164 0.389875 0.0559876  
     length 3.60004  
     axis 0 0 0   XYZ
    dof ry rz
    limits (-20.0 10.0)
           (0.0 20.0)
  end
  begin
     id 18 
     name lhumerus
     direction 1 -4.48958e-011 6.89191e-027   
     length 5.43301   
     axis 180 -30 -90   XYZ
    dof rx ry rz
    limits (-60.0 90.0)
           (-90.0 90.0)
           (-90.0 90.0)
  end
  begin
     id 19
     name lradius
     direction 1 -4.4897e-011 3.24727e-027   
     length 3.15936   
     axis 180 -30 -90   XYZ
    dof rx
    limits (-10.0 170.0)
  end
  begin
     id 20
     name lwrist
     direction 1 -4.4897e-011 9.00228e-027   
     length 1.57968   
     axis -6.29373e-015 90 90   XYZ
    dof ry
    limits (-180.0 0.0)
 end
  begin
     id 21 
     name lhand
     direction 1 -4.48968e-011 1.80042e-026   
     length 0.712827   
     axis -1.14882e-014 90 90   XYZ
    dof rx rz
    limits (-90.0 90.0)
           (-45.0 45.0)
  end
  begin
     id 22 
     name lfingers
     direction 1 -4.49019e-011 3.60267e-026   
     length 0.574699   
     axis -2.29769e-014 90 90   XYZ
    dof rx
    limits (0.0 90.0)
  end
  begin
     id 23
     name lthumb
     direction 0.707107 -6.3498e-011 0.707107   
     length 0.825157   
     axis -90 45 5.37419e-014   XYZ
    dof rx rz
    limits (-45.0 45.0)
           (-45.0 45.0)
  end
  begin
     id 24 
     name rclavicle
     direction -0.890334 0.455305 -0.00132111   
     length 3.51494  
     axis 0 0 0   XYZ 
    dof ry rz
    limits (-10.0 20.0)
           (-20.0 0.0)
  end
  begin
     id 25 
     name rhumerus
     direction -1 -4.48967e-011 5.07175e-028  
     length 5.34194   
     axis 180 30 90   XYZ
    dof rx ry rz
    limits (-90.0 60.0)
           (-90.0 90.0)
           (-90.0 90.0)
  end
  begin
     id 26 
     name rradius
     direction -1 -4.48955e-011 3.30467e-027   
     length 3.19351   
     axis 180 30 90   XYZ
    dof rx
    limits (-10.0 170.0)
  end
  begin
     id 27 
     name rwrist
     direction -1 -4.48968e-011 9.00208e-027   
     length 1.59676   
     axis -6.29373e-015 -90 -90   XYZ
    dof ry
    limits (-180.0 0.0)
  end
  begin
     id 28
     name rhand
     direction -1 -4.49e-011 1.80099e-026   
     length 0.743862   
     axis -1.14882e-014 -90 -90   XYZ
    dof rx rz
    limits (-90.0 90.0)
           (-45.0 45.0)
  end
  begin
     id 29
     name rfingers
     direction -1 -4.49009e-011 3.6023e-026   
     length 0.599721   
     axis -2.29769e-014 -90 -90   XYZ
    dof rx
    limits (0.0 90.0)
  end
  begin
     id 30
     name rthumb
     direction -0.707107 -6.35025e-011 0.707107   
     length 0.861083   
     axis -90 -45 -5.37419e-014   XYZ
    dof rx rz
    limits (-45.0 45.0)
           (-45.0 45.0)
  end
:hierarchy
  begin
    root lhipjoint rhipjoint lowerback
    lhipjoint lfemur
    lfemur ltibia
    ltibia lfoot
    lfoot ltoes
    rhipjoint rfemur
    rfemur rtibia
    rtibia rfoot
    rfoot rtoes
    lowerback upperback
    upperback thorax
    thorax lowerneck lclavicle rclavicle
    lowerneck upperneck
    upperneck head
    lclavicle lhumerus
    lhumerus lradius
    lradius lwrist
    lwrist lhand lthumb
    lhand lfingers
    rclavicle rhumerus
    rhumerus rradius
    rradius rwrist
    rwrist rhand rthumb
    rhand rfingers
  end

#!OML:ASF H:\Martial Arts Walks\Project 1\Capture day 1\Session 1\male.ASF
:FULLY-SPECIFIED
:DEGREES
330
root -1.71083 14.1203 -33.2968 12.9462 -20.5915 -10.3399
lowerback 12.3628 5.09622 3.46447
upperback -1.99903 7.45842 1.3367
thorax -8.80147 3.46346 -1.96123
lowerneck -4.23653 -2.01498 -3.50161
upperneck 1.84753 -2.64078 4.77058
head 1.43064 -1.26134 2.04691
rclavicle 1.07791e-013 2.38542e-014
rhumerus -22.5211 27.5075 -76.7136
rradius 95.4683
rwrist -4.00382
rhand -20.724 -34.3493
rfingers 7.12502
rthumb 5.64085 -64.2543
lclavicle 1.07791e-013 2.38542e-014
lhumerus -16.2757 -13.2718 78.0604
lradius 64.0278
lwrist 7.48102
lhand -28.6234 22.5558
lfingers 7.12502
lthumb -1.98802 52.5262
rfemur 8.10511 -0.189372 15.3315
rtibia 40.8553
rfoot -19.8325 -35.1119
rtoes -29.1989
lfemur -69.8102 24.9162 -17.0887
ltibia 82.0321
lfoot -19.073 20.551
ltoes 1.71099
331
root -1.68365 14.1603 -33.183 12.769 -19.8506 -10.0464
lowerback 12.4153 5.05005 3.43263
upperback -1.95075 7.38826 1.29782
thorax -8.78068 3.43089 -1.9744
lowerneck -3.98018 -2.22867 -3.61028
upperneck 1.56988 -2.92182 4.87785
head 1.31388 -1.40515 2.0949
rclavicle -2.83268e-014 -5.56597e-015
rhumerus -22.3726 27.1208 -76.6027
rradius 96.2761
rwrist -3.93381
rhand -20.8921 -34.3883
rfingers 7.12502
rthumb 5.47849 -64.2975
lclavicle -2.83268e-014 -5.56597e-015
lhumerus -16.4029 -13.5926 78.3282
lradius 64.6022
lwrist 7.87646
lhand -28.986 22.0974
lfingers 7.12502
lthumb -2.33819 52.0643
rfemur 7.55938 0.231774 15.452
rtibia 42.8983
rfoot -17.5792 -34.6246
rtoes -28.6228
lfemur -69.1125 23.8946 -17.274
ltibia 81.6619
lfoot -19.4147 20.1129
ltoes 2.46106
332
root -1.65709 14.203 -33.0716 12.3751 -19.0072 -9.61892
lowerback 12.6573 4.98901 3.26902
upperback -1.85146 7.28388 1.26238
thorax -8.83141 3.38551 -1.92212
lowerneck -3.82075 -2.42611 -3.67722
upperneck 1.40935 -3.18289 4.92764
head 1.24926 -1.53795 2.1174
rclavicle -5.87409e-014 1.59028e-014
rhumerus -22.2319 26.6548 -76.4724
rradius 97.04
rwrist -3.98001
rhand -21.2241 -34.5554
rfingers 7.12502
rthumb 5.15796 -64.4726
lclavicle -5.87409e-014 1.59028e-014
lhumerus -16.634 -13.9198 78.6882
lradius 65.2848
lwrist 8.23885
lhand -29.1872 21.9788
lfingers 7.12502
lthumb -2.53252 51.9435
rfemur 6.85975 0.509864 15.3748
rtibia 45.6047
rfoot -15.4676 -33.4328
rtoes -27.1823
lfemur -68.1101 22.6707 -17.4411
ltibia 81.2144
lfoot -19.5193 19.7056
ltoes 2.81191
333
root -1.63628 14.254 -32.9671 11.9472 -18.0335 -8.97342
lowerback 12.9322 4.90764 2.80508
upperback -1.77653 7.10553 1.21612
thorax -8.96504 3.31663 -1.7073
lowerneck -3.7021 -2.63966 -3.72988
upperneck 1.36034 -3.46791 4.94536
head 1.22774 -1.68205 2.12625
rclavicle 2.18166e-014 1.78906e-015
rhumerus -22.2214 26.1451 -76.3451
rradius 97.8877
rwrist -4.19124
rhand -21.3246 -34.61
rfingers 7.12502
rthumb 5.06096 -64.5295
lclavicle 2.18166e-014 1.78906e-015
lhumerus -16.7411 -14.1874 79.1185
lradius 65.7841
lwrist 8.50801
lhand -29.1252 23.0708
lfingers 7.12502
lthumb -2.47264 53.0362
rfemur 5.65037 0.737167 15.1593
rtibia 49.0058
rfoot -12.0035 -31.9688
rtoes -25.2747
lfemur -67.0828 21.2264 -17.8
ltibia 80.6133
lfoot -19.3958 19.1178
ltoes 3.66071
334
root -1.61793 14.2993 -32.863 11.4689 -17.0445 -8.24768
lowerback 13.2204 4.82093 2.25122
upperback -1.70711 6.90302 1.16609
thorax -9.121 3.2404 -1.44185
lowerneck -3.44776 -2.82734 -3.80504
upperneck 1.27351 -3.72018 4.9654
head 1.16973 -1.81179 2.14251
rclavicle 2.33572e-014 2.0276e-014
rhumerus -22.2969 25.6709 -76.2096
rradius 98.7469
rwrist -4.5781
rhand -21.4659 -34.7748
rfingers 7.12502
rthumb 4.92451 -64.6975
lclavicle 2.33572e-014 2.0276e-014
lhumerus -16.9604 -14.4828 79.5842
lradius 66.3118
lwrist 8.69668
lhand -29.1407 23.148
lfingers 7.12502
lthumb -2.48762 53.1133
rfemur 4.15595 1.09444 14.8501
rtibia 52.961
rfoot -8.09378 -29.7972
rtoes -22.2305
lfemur -66.0343 19.7621 -18.2532
ltibia 79.9895
lfoot -19.3585 18.3251
ltoes 5.34063
335
root -1.60622 14.3492 -32.7559 10.953 -16.0665 -7.43429
lowerback 13.4131 4.7702 1.56286
upperback -1.55343 6.71413 1.08528
thorax -9.13803 3.18143 -1.12169
lowerneck -3.27784 -3.02809 -3.84088
upperneck 1.20045 -3.99022 4.99582
head 1.13132 -1.94894 2.15423
rclavicle 1.7344e-014 -6.75868e-015
rhumerus -22.3089 25.0817 -76.0445
rradius 99.6284
rwrist -5.07717
rhand -21.5828 -34.9532
rfingers 7.12502
rthumb 4.81159 -64.8785
lclavicle 1.7344e-014 -6.75868e-015
lhumerus -16.9663 -14.8781 80.0065
lradius 66.7195
lwrist 8.78868
lhand -29.2202 22.0118
lfingers 7.12502
lthumb -2.56438 51.9761
rfemur 2.3174 1.40528 14.4193
rtibia 57.3761
rfoot -3.12336 -26.6794
rtoes -19.0029
lfemur -64.8857 18.3145 -18.7713
ltibia 79.301
lfoot -19.6039 17.2476
ltoes 7.65694
336
root -1.59909 14.3897 -32.6475 10.3778 -15.0356 -6.71537
lowerback 13.7024 4.68099 0.913032
upperback -1.4111 6.48531 1.05971
thorax -9.22229 3.10046 -0.762971
lowerneck -3.17528 -3.21119 -3.87074
upperneck 1.29735 -4.23906 4.96909
head 1.15609 -2.07454 2.14559
rclavicle -2.27608e-014 1.0138e-014
rhumerus -22.3014 24.5912 -75.9303
rradius 100.454
rwrist -5.74516
rhand -21.6297 -35.1142
rfingers 7.12502
rthumb 4.76637 -65.0406
lclavicle -2.27608e-014 1.0138e-014
lhumerus -17.0757 -15.249 80.4097
lradius 67.1553
lwrist 8.89417
lhand -29.2058 21.7183
lfingers 7.12502
lthumb -2.55049 51.6828
rfemur 0.329342 1.74603 14.1404
rtibia 62.1034
rfoot 1.70344 -20.8249
rtoes -14.3053
lfemur -63.6824 16.8791 -19.1621
ltibia 78.6961
lfoot -19.6441 17.0885
ltoes 7.77352
337
root -1.5974 14.4266 -32.5366 9.79457 -14.0108 -6.00864
lowerback 13.9504 4.62176 0.248809
upperback -1.23406 6.28809 1.02229
thorax -9.24045 3.03627 -0.407282
lowerneck -3.09609 -3.4138 -3.91774
upperneck 1.35589 -4.5133 5.01552
head 1.1768 -2.21188 2.16322
rclavicle 5.80203e-014 -7.65321e-015
rhumerus -22.3622 24.0715 -75.7948
rradius 101.368
rwrist -6.46873
rhand -21.826 -35.5039
rfingers 7.12502
rthumb 4.5768 -65.4344
lclavicle 5.80203e-014 -7.65321e-015
lhumerus -16.9824 -15.7464 80.7725
lradius 67.4503
lwrist 9.04544
lhand -29.0771 21.1485
lfingers 7.12502
lthumb -2.42617 51.1145
rfemur -1.88452 1.96573 13.8762
rtibia 66.9972
rfoot 3.65208 -12.4546
rtoes -14.1884
lfemur -62.456 15.5414 -19.5693
ltibia 78.1108
lfoot -19.6482 17.1735
ltoes 7.65836
338
root -1.59791 14.4593 -32.4253 9.24335 -12.9844 -5.3392
lowerback 14.1756 4.54956 -0.401062
upperback -1.04176 6.07322 0.985168
thorax -9.22314 2.96276 -0.0503114
lowerneck -3.14184 -3.60994 -3.98282
upperneck 1.5335 -4.77887 5.07963
head 1.25846 -2.34259 2.18767
rclavicle -6.72389e-014 -4.96962e-016
rhumerus -22.3377 23.4918 -75.7205
rradius 102.218
rwrist -7.07981
rhand -21.8409 -35.6018
rfingers 7.12502
rthumb 4.56239 -65.5326
lclavicle -6.72389e-014 -4.96962e-016
lhumerus -16.9108 -16.298 81.0523
lradius 67.835
lwrist 9.25703
lhand -28.9402 20.6889
lfingers 7.12502
lthumb -2.29399 50.6563
rfemur -4.29703 1.87879 13.6998
rtibia 72.016
rfoot 0.743348 -4.20491
rtoes -18.7582
lfemur -61.297 14.2814 -20.0063
ltibia 77.5731
lfoot -19.6756 17.1002
ltoes 7.69693
339
root -1.60178 14.499 -32.3093 8.65172 -12.0042 -4.63261
lowerback 14.4436 4.50113 -1.16948
upperback -0.885792 5.86841 0.952471
thorax -9.27872 2.89853 0.371735
lowerneck -2.96531 -3.78962 -3.99719
upperneck 1.61185 -5.02628 5.07839
head 1.26506 -2.46812 2.18566
rclavicle -5.32122e-014 1.61016e-014
rhumerus -22.6406 22.9056 -75.7389
rradius 103.258
rwrist -7.58144
rhand -21.8492 -35.6638
rfingers 7.12502
rthumb 4.55441 -65.5948
lclavicle -5.32122e-014 1.61016e-014
lhumerus -16.8443 -16.8814 81.3447
lradius 68.1127
lwrist 9.45777
lhand -28.8015 19.9542
lfingers 7.12502
lthumb -2.16002 49.923
rfemur -6.87084 1.48638 13.4792
rtibia 77.0262
rfoot -4.02315 1.323
rtoes -23.2759
lfemur -60.024 13.1597 -20.5358
ltibia 76.981
lfoot -19.7979 17.0984
ltoes 7.68573
